<svg xmlns="http://www.w3.org/2000/svg" xmlns:graphite="https://graphite.art" viewBox="0 0 100 100" width="100" height="100"><defs><clipPath id="artboard-2729928524751523126"><rect x="0" y="0" width="100" height="100" /></clipPath></defs><g>
<rect fill="#ffffff" fill-opacity="0" x="0" y="0" width="100" height="100"/>
<g clip-path="url(#artboard-2729928524751523126)">
	<g>
		<g transform="matrix(1,0,0,1,0,-0.436265606)">
			<path d="M30,72 C30,72 70,72 70,72" transform="matrix(1,0,0,1,0,-2.188637513)" fill="#000000" stroke-width="3" stroke="#000000"/>
		</g>
		<g transform="matrix(1,0,0,1,0,-0.436265606)">
			<path d="M34.21093749999994,30.62490311885887 Q35.24218749999994,30.62490311885887 36.83593749999994,30.67177811885887 Q38.42968749999994,30.71865311885887 39.41406249999994,30.71865311885887 Q40.41406249999994,30.71865311885887 42.02343749999994,30.67177811885887 Q43.64843749999994,30.62490311885887 44.67968749999994,30.62490311885887 Q44.72656249999994,31.04677811885887 44.67968749999994,31.53115311885887 Q43.13281249999994,31.67177811885887 42.42968749999994,31.84365311885887 Q41.72656249999994,31.99990311885887 41.53906249999994,32.51552811885887 Q41.35156249999994,33.03115311885887 41.35156249999994,34.24990311885887 Q41.35156249999994,51.12490311885887 41.35156249999994,51.12490311885887 Q41.35156249999994,56.62490311885887 43.77343749999994,59.46865311885887 Q46.19531249999994,62.31240311885887 50.83593749999994,62.31240311885887 Q55.72656249999994,62.31240311885887 58.19531249999994,59.21865311885887 Q60.66406249999994,56.10927811885887 60.66406249999994,50.14052811885887 Q60.66406249999994,35.04677811885887 60.66406249999994,35.04677811885887 Q60.66406249999994,33.45302811885887 60.47656249999994,32.79677811885887 Q60.28906249999994,32.14052811885887 59.53906249999994,31.93740311885887 Q58.78906249999994,31.71865311885887 57.03906249999994,31.57802811885887 Q56.99218749999994,31.09365311885887 57.03906249999994,30.67177811885887 Q57.99218749999994,30.67177811885887 59.32031249999994,30.70302811885887 Q60.66406249999994,30.71865311885887 61.46093749999994,30.71865311885887 Q62.30468749999994,30.71865311885887 63.57031249999994,30.70302811885887 Q64.85156249999994,30.67177811885887 65.78906249999994,30.67177811885887 Q65.83593749999994,31.09365311885887 65.78906249999994,31.57802811885887 Q64.19531249999994,31.71865311885887 63.47656249999994,31.90615311885887 Q62.77343749999994,32.09365311885887 62.58593749999994,32.65615311885887 Q62.39843749999994,33.21865311885887 62.39843749999994,34.62490311885887 Q62.39843749999994,50.84365311885887 62.39843749999994,50.84365311885887 Q62.39843749999994,56.90615311885887 59.33593749999994,60.53115311885887 Q56.28906249999994,64.14052811885887 49.89843749999994,64.14052811885887 Q44.30468749999994,64.14052811885887 40.94531249999994,61.09365311885887 Q37.58593749999994,58.03115311885887 37.58593749999994,52.15615311885887 Q37.58593749999994,34.67177811885887 37.58593749999994,34.67177811885887 Q37.58593749999994,33.26552811885887 37.41406249999994,32.65615311885887 Q37.25781249999994,32.04677811885887 36.55468749999994,31.85927811885887 Q35.85156249999994,31.67177811885887 34.21093749999994,31.53115311885887 Q34.16406249999994,31.09365311885887 34.21093749999994,30.62490311885887 Q34.21093749999994,30.62490311885887 34.21093749999994,30.62490311885887 Z" fill="#000000"/>
		</g>
	</g>
</g></g></svg>